<svg width="32" height="32" viewBox="0 0 32 32" fill="none" xmlns="http://www.w3.org/2000/svg">
<g id="animater">
<path id="Vector" d="M23.5817 11.8785L25.6759 11.3716L23.5547 10.2594L25.007 8.3527L22.765 8.86592C21.3938 7.49945 18.9325 7.73461 17.2642 9.40615C16.3963 10.2419 15.8841 11.3801 15.8341 12.584L6.164 23.905C7.99745 24.1514 9.86042 23.7724 11.4519 22.8293C12.1453 22.4514 12.7614 21.9463 13.268 21.3405L14.787 19.5641L15.0619 19.7945L12.1431 23.2027C13.6368 23.8949 15.3032 24.1251 16.9286 23.8638C18.554 23.6025 20.0643 22.8616 21.2657 21.7361C22.4672 20.6106 23.305 19.1519 23.6718 17.547C24.0386 15.9421 23.9176 14.2642 23.3243 12.7286C23.4382 12.4545 23.5245 12.1697 23.5817 11.8785Z" fill="white"/>
</g>
</svg>
