<svg width="176" height="19" viewBox="0 0 176 19" fill="none" xmlns="http://www.w3.org/2000/svg">
    <g clip-path="url(#clip0_9617_15036)">
        <path
            d="M24.1202 14.3405V9.95335H24.4248C26.2923 11.9235 28.7914 12.2282 30.1111 12.2282C31.1878 12.2282 32.285 11.9629 32.285 11.03C32.285 9.12146 24.0996 10.2786 24.0996 5.4447C24.0996 2.53479 26.9838 1.07812 29.9691 1.07812C32.2029 1.07812 34.031 1.72858 35.4329 2.84632V6.67542H35.1881C33.9094 5.35569 31.8365 4.4502 29.7859 4.4502C28.7092 4.4502 27.612 4.69326 27.612 5.56795C27.612 7.65966 36.0422 6.03524 36.0422 11.03C36.0422 14.1796 33.6647 15.7834 29.8475 15.7834C28.3036 15.7817 26.1297 15.5387 24.1202 14.3405Z"
            fill="#9A9ABB" />
        <path
            d="M37.6819 12.0452V5.62624H36.3125V3.45408C37.978 3.45408 38.6079 3.02615 38.6079 1.32129H41.4476V3.35138H43.9057V5.95147L41.4476 5.6485V10.9069C41.4476 11.8415 41.7112 12.4303 42.6253 12.4303C42.8399 12.4269 43.0498 12.3668 43.2338 12.2562C43.4177 12.1456 43.5692 11.9883 43.6729 11.8004H43.8971V14.8062C43.2261 15.4771 42.312 15.7818 41.196 15.7818C38.8801 15.7818 37.6819 14.2173 37.6819 12.0452Z"
            fill="#9A9ABB" />
        <path
            d="M44.4502 9.4657C44.4502 5.97209 47.0503 3.1084 51.1259 3.1084C55.2015 3.1084 57.8015 5.97209 57.8015 9.4657C57.8015 12.9593 55.2631 15.7819 51.1259 15.7819C47.0297 15.7819 44.4502 12.9593 44.4502 9.4657ZM51.1259 12.2678C52.9745 12.2678 54.4569 11.3332 54.4569 9.4657C54.4569 7.59822 52.9745 6.66191 51.1259 6.66191C49.3183 6.66191 47.836 7.61705 47.836 9.4657C47.836 11.3143 49.3046 12.2678 51.1327 12.2678H51.1259Z"
            fill="#9A9ABB" />
        <path
            d="M58.8083 3.35146H62.5741L61.8894 10.277H62.1496C62.5365 4.79957 64.1609 3.1084 66.862 3.1084V7.45443H66.66C66.1815 7.18654 65.625 7.09278 65.0852 7.18912C63.2982 7.57425 62.5467 9.58552 62.5467 12.2455V15.5388H58.8083V3.35146Z"
            fill="#9A9ABB" />
        <path
            d="M69.6779 18.4415V15.2132C70.2967 15.4194 70.9403 15.5414 71.5916 15.5761C73.014 15.5761 74.5888 14.8675 75.6484 13.7086V13.5221H71.2202L67.4219 3.35107H71.3828L73.0945 8.16441C73.5412 9.54576 74.0205 11.1513 74.0205 12.4095H74.2413C74.2413 11.1513 74.7189 9.48585 75.1451 8.16441L76.8722 3.35107H80.8331L76.8106 14.4772C75.6278 18.1574 73.7997 18.8284 71.9716 18.8284C71.1907 18.8294 70.4153 18.6986 69.6779 18.4415Z"
            fill="#9A9ABB" />
        <path d="M85.4782 4.48967H81.3701V1.32129H93.3983V4.48967H89.2765V15.5388H85.4782V4.48967Z"
            fill="#9A9ABB" />
        <path
            d="M96.4447 0.306641C97.7456 0.306641 98.6186 1.23952 98.6186 2.33673C98.6186 3.43394 97.7627 4.36853 96.4447 4.36853C95.1267 4.36853 94.2314 3.45448 94.2314 2.33673C94.2314 1.21898 95.125 0.306641 96.4447 0.306641ZM94.5361 4.85295H94.6577C95.1044 5.28087 95.7754 5.48286 96.4447 5.48286C97.0854 5.49838 97.7088 5.27369 98.1923 4.85295H98.3139V15.5392H94.5361V4.85295Z"
            fill="#9A9ABB" />
        <path d="M99.845 0.306641H103.623V15.5409H99.845V0.306641Z" fill="#9A9ABB" />
        <path
            d="M107.04 0.306641C108.339 0.306641 109.212 1.23952 109.212 2.33673C109.212 3.43394 108.356 4.36853 107.04 4.36853C105.724 4.36853 104.825 3.45448 104.825 2.33673C104.825 1.21898 105.718 0.306641 107.04 0.306641ZM105.123 4.85295H105.246C105.693 5.28087 106.362 5.48286 107.033 5.48286C107.673 5.49895 108.296 5.27416 108.779 4.85295H108.901V15.5392H105.123V4.85295Z"
            fill="#9A9ABB" />
        <path
            d="M110.379 3.35146H114.145L113.46 10.277H113.72C114.167 5.05804 115.69 3.1084 118.575 3.1084C120.891 3.1084 122.636 4.59074 122.636 8.58588V15.5388H118.871V10.5749C118.871 8.74849 118.545 7.02137 116.841 7.02137C114.302 7.02137 114.119 10.0271 114.119 13.0124V15.5388H110.379V3.35146Z"
            fill="#9A9ABB" />
        <path
            d="M123.883 15.6195C123.883 14.2176 124.98 13.4353 126.87 13.3737V13.1324C124.676 13.194 123.519 12.7763 123.519 11.5918C123.519 10.4535 124.737 10.0068 126.463 10.0068C127.13 10.0074 127.796 10.0646 128.453 10.178L128.474 9.91607C125.021 9.73463 124.006 8.2694 124.006 6.76652C124.006 4.69364 126.06 3.1103 129.794 3.1103C131.642 3.1103 133.676 3.69913 135.117 5.32355L135.257 5.20201C134.16 3.00931 130.87 2.07472 128.515 1.93265V1.5903L132.435 0.229492C134.607 1.52868 135.988 3.88571 135.988 5.9158C135.988 9.24679 133.693 10.7497 129.936 10.7497C128.678 10.7497 127.986 10.7103 127.539 10.7103C126.584 10.7103 126.078 10.8113 126.078 11.2786C126.078 11.6843 126.625 11.7459 127.052 11.7459C128.332 11.7459 130.769 11.116 132.861 11.116C135.942 11.116 136.627 12.9441 136.627 14.4675C136.627 16.3761 135.408 18.8341 130.006 18.8341C125.549 18.829 123.883 17.3055 123.883 15.6195ZM129.977 15.5185C131.906 15.5185 133.571 15.0717 133.551 13.9335C133.551 13.0776 132.577 12.8174 131.439 12.8363C129.45 12.8773 127.093 13.2642 126.504 13.8735C126.504 15.2344 128.352 15.5185 129.977 15.5185ZM129.876 8.81544C131.338 8.81544 132.19 8.22661 132.19 7.39472C132.19 6.49949 131.317 5.95175 129.876 5.95175C128.435 5.95175 127.58 6.48066 127.58 7.37418C127.58 8.20607 128.402 8.81544 129.876 8.81544Z"
            fill="#9A9ABB" />
        <path
            d="M18.7882 4.37548L21.0442 3.82944L18.7591 2.63125L20.3236 0.577193L17.9084 1.13008C16.4312 -0.341996 13.7797 -0.0886629 11.9824 1.71206C11.0475 2.6124 10.4957 3.8386 10.4419 5.13548L0.0244141 17.3314C1.99956 17.5968 4.00651 17.1886 5.72099 16.1726C6.468 15.7655 7.13172 15.2214 7.67748 14.5687L9.31387 12.655L9.61 12.9032L6.46559 16.5748C8.0747 17.3205 9.86989 17.5685 11.6209 17.287C13.3719 17.0055 14.9989 16.2074 16.2932 14.9949C17.5876 13.7824 18.4902 12.211 18.8853 10.482C19.2804 8.75312 19.15 6.94558 18.5109 5.29125C18.6336 4.996 18.7265 4.68922 18.7882 4.37548Z"
            fill="#9A9ABB" />
    </g>
    <path
        d="M139.859 16.176C139.443 16.176 139.123 16.0587 138.899 15.824C138.675 15.5893 138.563 15.2533 138.563 14.816C138.563 14.4213 138.68 14.1013 138.915 13.856C139.16 13.6 139.475 13.472 139.859 13.472C140.264 13.472 140.579 13.5893 140.803 13.824C141.027 14.0587 141.139 14.3893 141.139 14.816C141.139 15.2213 141.022 15.552 140.787 15.808C140.552 16.0533 140.243 16.176 139.859 16.176ZM146.404 16.16C145.593 16.16 144.868 15.968 144.228 15.584C143.588 15.2 143.081 14.6773 142.708 14.016C142.345 13.3547 142.164 12.6027 142.164 11.76C142.164 10.928 142.345 10.1813 142.708 9.52C143.081 8.848 143.588 8.32 144.228 7.936C144.868 7.552 145.593 7.36 146.404 7.36C147.161 7.36 147.855 7.49867 148.484 7.776C149.113 8.05333 149.604 8.43733 149.956 8.928L148.708 10.432C148.559 10.2293 148.372 10.048 148.148 9.888C147.924 9.71733 147.679 9.584 147.412 9.488C147.156 9.392 146.889 9.344 146.612 9.344C146.175 9.344 145.785 9.45067 145.444 9.664C145.113 9.86667 144.852 10.1493 144.66 10.512C144.468 10.8747 144.372 11.2907 144.372 11.76C144.372 12.2187 144.468 12.6293 144.66 12.992C144.863 13.344 145.135 13.632 145.476 13.856C145.817 14.0693 146.201 14.176 146.628 14.176C146.905 14.176 147.167 14.1387 147.412 14.064C147.657 13.9787 147.887 13.856 148.1 13.696C148.324 13.536 148.527 13.344 148.708 13.12L149.94 14.624C149.577 15.0827 149.076 15.456 148.436 15.744C147.796 16.0213 147.119 16.16 146.404 16.16ZM155.092 16.16C154.228 16.16 153.455 15.9733 152.772 15.6C152.1 15.216 151.567 14.6933 151.172 14.032C150.788 13.3707 150.596 12.6133 150.596 11.76C150.596 10.9067 150.788 10.1547 151.172 9.504C151.567 8.84267 152.1 8.32 152.772 7.936C153.455 7.552 154.228 7.36 155.092 7.36C155.945 7.36 156.708 7.552 157.38 7.936C158.063 8.32 158.596 8.84267 158.98 9.504C159.364 10.1547 159.556 10.9067 159.556 11.76C159.556 12.6133 159.364 13.3707 158.98 14.032C158.596 14.6933 158.063 15.216 157.38 15.6C156.708 15.9733 155.945 16.16 155.092 16.16ZM155.092 14.176C155.508 14.176 155.881 14.0747 156.212 13.872C156.543 13.6587 156.799 13.3707 156.98 13.008C157.172 12.6347 157.268 12.2187 157.268 11.76C157.268 11.2907 157.172 10.8747 156.98 10.512C156.799 10.1387 156.543 9.85067 156.212 9.648C155.881 9.43467 155.508 9.328 155.092 9.328C154.665 9.328 154.287 9.43467 153.956 9.648C153.625 9.86133 153.364 10.1493 153.172 10.512C152.98 10.8747 152.889 11.2907 152.9 11.76C152.889 12.2187 152.98 12.6347 153.172 13.008C153.364 13.3707 153.625 13.6587 153.956 13.872C154.287 14.0747 154.665 14.176 155.092 14.176ZM161.009 16V7.536H163.201L163.249 9.152L162.913 9.216C163.031 8.93867 163.185 8.688 163.377 8.464C163.569 8.24 163.793 8.048 164.049 7.888C164.316 7.728 164.593 7.60533 164.881 7.52C165.169 7.424 165.457 7.376 165.745 7.376C166.183 7.376 166.577 7.44533 166.929 7.584C167.281 7.72267 167.58 7.94133 167.825 8.24C168.071 8.528 168.263 8.912 168.401 9.392L168.049 9.36L168.161 9.104C168.3 8.848 168.476 8.61867 168.689 8.416C168.903 8.20267 169.143 8.02133 169.409 7.872C169.676 7.712 169.953 7.58933 170.241 7.504C170.529 7.41867 170.812 7.376 171.089 7.376C171.751 7.376 172.3 7.50933 172.737 7.776C173.175 8.032 173.5 8.42133 173.713 8.944C173.937 9.46667 174.049 10.1067 174.049 10.864V16H171.777V11.024C171.777 10.64 171.724 10.3253 171.617 10.08C171.511 9.83467 171.356 9.65333 171.153 9.536C170.951 9.408 170.689 9.344 170.369 9.344C170.124 9.344 169.895 9.38667 169.681 9.472C169.479 9.54667 169.297 9.65867 169.137 9.808C168.988 9.94667 168.871 10.112 168.785 10.304C168.7 10.496 168.657 10.7093 168.657 10.944V16H166.385V11.008C166.385 10.656 166.327 10.3573 166.209 10.112C166.103 9.856 165.948 9.664 165.745 9.536C165.543 9.408 165.292 9.344 164.993 9.344C164.748 9.344 164.519 9.38667 164.305 9.472C164.103 9.54667 163.927 9.65867 163.777 9.808C163.628 9.94667 163.505 10.112 163.409 10.304C163.324 10.496 163.281 10.704 163.281 10.928V16H161.009Z"
        fill="#9A9ABB" />
    <defs>
        <clipPath id="clip0_9617_15036">
            <rect width="137.75" height="19" fill="white" transform="translate(0.125)" />
        </clipPath>
    </defs>
</svg>
